<?xml version="1.0" standalone="no"?>
<!DOCTYPE svg PUBLIC "-//W3C//DTD SVG 20010904//EN"
 "http://www.w3.org/TR/2001/REC-SVG-20010904/DTD/svg10.dtd">
<svg version="1.0" xmlns="http://www.w3.org/2000/svg"
 width="16.000000pt" height="16.000000pt" viewBox="0 0 16.000000 16.000000"
 preserveAspectRatio="xMidYMid meet">
<metadata>
Created by potrace 1.11, written by Peter Selinger 2001-2013
</metadata>
<g transform="translate(0.000000,16.000000) scale(0.002286,-0.002286)"
fill="#000000" stroke="none">
<path d="M4709 6996 c-2 -2 -29 -6 -59 -9 -144 -16 -435 -89 -464 -118 -6 -5
-16 -9 -23 -9 -18 0 -157 -67 -241 -117 -188 -110 -375 -286 -481 -451 -33
-51 -34 -52 -85 -53 -53 -1 -82 -3 -181 -13 -105 -11 -138 -16 -280 -41 -176
-31 -468 -122 -645 -202 -101 -46 -295 -145 -311 -159 -8 -8 -19 -14 -23 -14
-17 0 -266 -172 -371 -256 -133 -106 -334 -303 -430 -420 -38 -47 -75 -91 -81
-98 -6 -6 -36 -48 -67 -91 -31 -44 -60 -84 -65 -90 -40 -50 -262 -455 -262
-479 0 -3 -11 -30 -25 -60 -14 -30 -25 -61 -25 -68 0 -8 -4 -18 -9 -24 -22
-23 -130 -404 -146 -514 -4 -24 -8 -47 -10 -50 -2 -3 -7 -33 -10 -65 -4 -33
-9 -69 -11 -80 -4 -22 -11 -92 -19 -195 -7 -81 -7 -351 -1 -405 3 -22 8 -69
11 -105 3 -36 7 -76 9 -90 15 -106 17 -124 20 -129 2 -3 7 -26 10 -51 3 -25
19 -100 36 -167 113 -464 348 -920 665 -1289 112 -130 305 -313 451 -427 67
-53 289 -207 298 -207 2 0 33 -17 67 -38 105 -64 415 -209 484 -226 6 -2 17
-6 25 -9 34 -14 251 -76 332 -96 236 -56 420 -75 708 -76 230 0 379 13 585 50
160 28 559 148 590 176 5 5 15 9 22 9 14 0 272 125 353 171 108 62 307 199
410 282 147 118 353 324 455 452 22 28 43 52 46 55 16 14 175 248 227 336 65
108 175 332 211 429 13 33 27 69 32 80 30 71 107 342 128 455 6 30 13 69 16
85 11 56 34 240 39 315 7 87 8 383 2 420 -2 14 -7 65 -11 114 -3 49 -8 92 -9
95 -2 3 -7 33 -11 66 -3 32 -8 62 -10 65 -2 3 -6 26 -10 50 -31 210 -146 553
-266 792 l-58 116 38 74 c91 176 160 388 177 538 5 42 4 233 -1 270 -3 19 -7
58 -10 85 -3 28 -8 57 -10 65 -2 8 -7 31 -10 50 -40 239 -178 537 -335 724
-94 111 -281 268 -400 335 -271 152 -549 230 -836 237 -78 1 -144 1 -145 0z
m-1870 -1273 c-8 -10 -26 -31 -40 -48 -118 -134 -244 -342 -350 -580 l-18 -39
-66 -3 c-150 -5 -282 -72 -369 -185 l-27 -37 -47 20 c-108 46 -152 66 -242
112 -52 27 -96 50 -98 51 -4 5 123 125 198 188 270 224 593 398 935 503 131
40 143 42 124 18z m377 -40 c-21 -154 -26 -310 -12 -417 16 -128 85 -336 157
-479 14 -27 20 -60 21 -115 1 -136 0 -141 -21 -137 -11 2 -75 6 -143 10 -68 3
-130 8 -138 10 -8 2 -42 6 -75 10 -95 8 -145 17 -146 24 -7 69 -11 92 -21 121
-23 75 -69 149 -127 207 -36 35 -57 63 -52 69 5 5 19 34 32 64 64 152 222 399
324 509 64 69 183 171 198 171 6 0 7 -20 3 -47z m-1658 -922 c136 -68 279
-133 317 -145 17 -5 20 -15 22 -62 4 -95 45 -208 98 -273 33 -40 109 -111 120
-111 6 0 20 -8 32 -18 l22 -17 -19 -117 c-10 -65 -22 -144 -24 -175 -6 -61
-13 -131 -21 -198 -5 -47 -14 -184 -20 -308 -2 -49 -5 -91 -8 -93 -3 -3 -812
-6 -1214 -4 l-62 0 4 43 c16 184 19 210 30 266 1 9 6 36 10 61 34 217 151 554
272 779 76 143 275 439 296 440 4 1 69 -30 145 -68z m1402 -427 c36 -3 76 -8
90 -10 14 -2 63 -7 110 -9 141 -9 214 -15 219 -20 3 -4 5 -989 2 -1042 -1 -10
-114 -13 -532 -13 l-531 0 7 138 c8 179 11 220 30 407 7 60 17 138 21 160 3
11 7 36 10 55 15 99 13 95 56 98 119 9 269 105 341 219 25 40 26 40 69 32 24
-4 72 -11 108 -15z m796 -146 c49 -62 138 -169 199 -238 153 -174 551 -571
679 -678 l39 -32 -39 -1 c-216 -3 -1006 0 -1011 5 -4 4 -8 1004 -4 1049 1 4
11 7 24 7 18 0 45 -27 113 -112z m2234 -25 c22 -48 99 -264 105 -293 2 -8 13
-52 24 -98 27 -104 58 -284 66 -382 4 -41 8 -92 10 -112 2 -30 -1 -38 -14 -39
-21 0 -1175 0 -1179 0 -1 1 28 27 65 58 273 231 621 573 773 759 86 107 125
154 127 154 1 0 12 -21 23 -47z m-3909 -1173 c0 -8 2 -51 5 -95 2 -44 6 -120
8 -170 5 -97 31 -339 47 -445 10 -63 13 -83 24 -152 3 -18 8 -46 11 -63 2 -16
18 -90 35 -164 16 -74 26 -138 22 -142 -5 -3 -46 -19 -93 -34 -192 -62 -402
-150 -622 -261 l-107 -54 -59 78 c-297 390 -498 898 -537 1357 -3 39 -8 90
-10 115 l-5 45 640 0 c562 0 640 -2 641 -15z m1295 8 c9 -10 10 -671 1 -686
-4 -6 -22 -14 -40 -17 -132 -28 -274 -171 -322 -325 -16 -51 -20 -56 -49 -58
-54 -4 -317 -50 -406 -71 -47 -11 -86 -18 -88 -17 -1 2 -15 61 -31 132 -43
191 -75 397 -96 609 -3 33 -8 78 -10 100 -7 66 -16 325 -11 333 6 9 1042 9
1052 0z m1295 -3 c4 -57 -13 -353 -25 -450 -3 -16 -7 -61 -11 -100 -6 -59 -55
-367 -69 -430 -2 -11 -12 -54 -21 -95 -9 -41 -18 -80 -20 -86 -2 -8 -28 -6
-87 7 -115 26 -357 68 -415 73 -26 2 -53 4 -59 5 -6 1 -17 20 -24 44 -38 129
-130 240 -247 298 -38 19 -70 35 -72 36 -3 2 -5 613 -2 688 1 20 8 20 526 20
345 0 525 -3 526 -10z m1523 -25 c-2 -73 -14 -186 -30 -274 -8 -50 -17 -102
-19 -116 -6 -44 -72 -282 -100 -360 -89 -249 -221 -493 -388 -717 -54 -72 -72
-90 -85 -84 -9 4 -91 44 -182 88 -179 88 -351 159 -527 217 -62 21 -113 39
-113 41 0 1 13 61 29 131 29 129 46 213 56 289 3 22 10 63 15 90 6 28 12 75
15 105 3 30 7 75 10 100 13 107 18 183 31 405 3 60 7 112 9 115 2 3 290 5 642
5 l638 0 -1 -35z m-2114 -1300 c30 -6 73 -12 95 -15 48 -7 277 -54 281 -58 2
-1 -8 -34 -22 -72 -14 -39 -32 -90 -40 -115 -52 -150 -171 -386 -270 -535
-123 -187 -269 -328 -408 -395 -109 -52 -98 -101 -98 428 -1 254 1 464 3 465
2 2 33 16 68 32 84 39 175 129 219 218 l33 66 42 -5 c23 -3 67 -9 97 -14z
m-1034 -47 c60 -120 168 -212 289 -247 l50 -15 -1 -458 c-1 -338 -4 -458 -12
-461 -7 -2 -49 14 -95 36 -94 46 -211 141 -293 240 -129 154 -278 416 -364
642 -18 47 -36 94 -41 105 -12 32 -39 118 -39 126 0 4 15 10 33 13 17 3 43 9
57 12 14 3 36 7 50 10 57 13 277 50 306 52 29 2 34 -2 60 -55z m-717 -160
c118 -364 310 -721 497 -925 19 -21 32 -38 30 -38 -14 0 -192 54 -276 84 -233
84 -473 212 -678 363 -42 31 -79 59 -82 62 -3 3 -27 24 -54 45 -70 57 -192
174 -186 179 11 10 261 128 345 163 97 40 353 133 371 133 6 1 21 -29 33 -66z
m2492 28 c239 -83 575 -230 594 -261 3 -5 -13 -26 -36 -47 -23 -21 -56 -51
-73 -67 -175 -164 -462 -351 -716 -463 -143 -64 -434 -162 -446 -151 -1 2 22
33 53 68 166 195 356 551 453 850 28 85 39 110 48 110 5 0 60 -18 123 -39z"/>
</g>
</svg>
